<mxfile host="app.diagrams.net" modified="2023-05-18T15:06:15.003Z" agent="Mozilla/5.0 (Windows NT 10.0; Win64; x64) AppleWebKit/537.36 (KHTML, like Gecko) Chrome/113.0.0.0 Safari/537.36" etag="Luvy1WbkwsIlQ0Jgi4OI" version="21.3.2" type="device">
  <diagram name="ページ1" id="2sUiVRnpfOYeaBz52JpK">
    <mxGraphModel dx="1105" dy="578" grid="1" gridSize="10" guides="1" tooltips="1" connect="1" arrows="1" fold="1" page="1" pageScale="1" pageWidth="827" pageHeight="1169" math="0" shadow="0">
      <root>
        <mxCell id="0" />
        <mxCell id="1" parent="0" />
        <mxCell id="DRkswf2aKW2MZo4WkLbO-40" value="" style="rounded=1;whiteSpace=wrap;html=1;" vertex="1" parent="1">
          <mxGeometry x="553.25" y="230" width="260" height="192" as="geometry" />
        </mxCell>
        <mxCell id="DRkswf2aKW2MZo4WkLbO-39" value="" style="rounded=1;whiteSpace=wrap;html=1;" vertex="1" parent="1">
          <mxGeometry x="283.25" y="228" width="260" height="192" as="geometry" />
        </mxCell>
        <mxCell id="DRkswf2aKW2MZo4WkLbO-38" value="" style="rounded=1;whiteSpace=wrap;html=1;" vertex="1" parent="1">
          <mxGeometry x="13.25" y="228" width="260" height="192" as="geometry" />
        </mxCell>
        <mxCell id="uRppb-iTMHZAZtV6zd73-1" value="管理メイン画面" style="rounded=0;whiteSpace=wrap;html=1;" parent="1" vertex="1">
          <mxGeometry x="413.25" y="110" width="120" height="60" as="geometry" />
        </mxCell>
        <mxCell id="uRppb-iTMHZAZtV6zd73-3" value="" style="endArrow=classic;html=1;rounded=0;entryX=0.5;entryY=0;entryDx=0;entryDy=0;" parent="1" source="uRppb-iTMHZAZtV6zd73-1" edge="1" target="uRppb-iTMHZAZtV6zd73-5">
          <mxGeometry width="50" height="50" relative="1" as="geometry">
            <mxPoint x="451.75" y="152" as="sourcePoint" />
            <mxPoint x="471.75" y="222" as="targetPoint" />
          </mxGeometry>
        </mxCell>
        <mxCell id="uRppb-iTMHZAZtV6zd73-4" value="会員管理画面&lt;br&gt;&lt;br&gt;会員一覧" style="rounded=0;whiteSpace=wrap;html=1;" parent="1" vertex="1">
          <mxGeometry x="163.25" y="270" width="100" height="90" as="geometry" />
        </mxCell>
        <mxCell id="uRppb-iTMHZAZtV6zd73-5" value="" style="rhombus;whiteSpace=wrap;html=1;" parent="1" vertex="1">
          <mxGeometry x="464.75" y="190" width="17" height="20" as="geometry" />
        </mxCell>
        <mxCell id="uRppb-iTMHZAZtV6zd73-6" value="" style="endArrow=classic;html=1;rounded=0;entryX=0.5;entryY=0;entryDx=0;entryDy=0;exitX=0.5;exitY=1;exitDx=0;exitDy=0;" parent="1" edge="1" target="DRkswf2aKW2MZo4WkLbO-25" source="uRppb-iTMHZAZtV6zd73-5">
          <mxGeometry width="50" height="50" relative="1" as="geometry">
            <mxPoint x="352.91" y="210" as="sourcePoint" />
            <mxPoint x="352.91" y="270" as="targetPoint" />
          </mxGeometry>
        </mxCell>
        <mxCell id="uRppb-iTMHZAZtV6zd73-7" value="" style="endArrow=classic;html=1;rounded=0;exitX=0;exitY=0.5;exitDx=0;exitDy=0;entryX=0.5;entryY=0;entryDx=0;entryDy=0;" parent="1" edge="1" target="uRppb-iTMHZAZtV6zd73-4" source="uRppb-iTMHZAZtV6zd73-5">
          <mxGeometry width="50" height="50" relative="1" as="geometry">
            <mxPoint x="343.25" y="200" as="sourcePoint" />
            <mxPoint x="243.2500000000001" y="270" as="targetPoint" />
            <Array as="points">
              <mxPoint x="213.25" y="200" />
            </Array>
          </mxGeometry>
        </mxCell>
        <mxCell id="uRppb-iTMHZAZtV6zd73-8" value="" style="endArrow=classic;html=1;rounded=0;exitX=1;exitY=0.5;exitDx=0;exitDy=0;" parent="1" source="uRppb-iTMHZAZtV6zd73-5" edge="1" target="DRkswf2aKW2MZo4WkLbO-41">
          <mxGeometry width="50" height="50" relative="1" as="geometry">
            <mxPoint x="463.2500000000001" y="208" as="sourcePoint" />
            <mxPoint x="783.25" y="178" as="targetPoint" />
            <Array as="points">
              <mxPoint x="743.25" y="198" />
            </Array>
          </mxGeometry>
        </mxCell>
        <mxCell id="DRkswf2aKW2MZo4WkLbO-2" value="新規会員&lt;br&gt;登録画面" style="rounded=0;whiteSpace=wrap;html=1;" vertex="1" parent="1">
          <mxGeometry x="33.25" y="270" width="80" height="30" as="geometry" />
        </mxCell>
        <mxCell id="DRkswf2aKW2MZo4WkLbO-3" value="会員情報&lt;br&gt;詳細画面" style="rounded=0;whiteSpace=wrap;html=1;" vertex="1" parent="1">
          <mxGeometry x="33.25" y="310" width="80" height="30" as="geometry" />
        </mxCell>
        <mxCell id="DRkswf2aKW2MZo4WkLbO-4" value="会員情報&lt;br&gt;変更画面" style="rounded=0;whiteSpace=wrap;html=1;" vertex="1" parent="1">
          <mxGeometry x="33.25" y="370" width="80" height="30" as="geometry" />
        </mxCell>
        <mxCell id="DRkswf2aKW2MZo4WkLbO-6" value="" style="endArrow=classic;html=1;rounded=0;exitX=-0.007;exitY=0.225;exitDx=0;exitDy=0;exitPerimeter=0;entryX=1.014;entryY=0.68;entryDx=0;entryDy=0;entryPerimeter=0;" edge="1" parent="1" source="uRppb-iTMHZAZtV6zd73-4" target="DRkswf2aKW2MZo4WkLbO-2">
          <mxGeometry width="50" height="50" relative="1" as="geometry">
            <mxPoint x="143.25" y="260" as="sourcePoint" />
            <mxPoint x="193.25" y="210" as="targetPoint" />
          </mxGeometry>
        </mxCell>
        <mxCell id="DRkswf2aKW2MZo4WkLbO-8" value="" style="endArrow=classic;html=1;rounded=0;exitX=1.017;exitY=0.171;exitDx=0;exitDy=0;exitPerimeter=0;entryX=0;entryY=0.057;entryDx=0;entryDy=0;entryPerimeter=0;" edge="1" parent="1" source="DRkswf2aKW2MZo4WkLbO-2" target="uRppb-iTMHZAZtV6zd73-4">
          <mxGeometry width="50" height="50" relative="1" as="geometry">
            <mxPoint x="172.25" y="300" as="sourcePoint" />
            <mxPoint x="124.25" y="300" as="targetPoint" />
          </mxGeometry>
        </mxCell>
        <mxCell id="DRkswf2aKW2MZo4WkLbO-9" value="登録" style="text;html=1;align=center;verticalAlign=middle;resizable=0;points=[];autosize=1;strokeColor=none;fillColor=none;" vertex="1" parent="1">
          <mxGeometry x="113.25" y="250" width="50" height="30" as="geometry" />
        </mxCell>
        <mxCell id="DRkswf2aKW2MZo4WkLbO-10" value="" style="endArrow=classic;html=1;rounded=0;exitX=-0.007;exitY=0.225;exitDx=0;exitDy=0;exitPerimeter=0;entryX=1.014;entryY=0.68;entryDx=0;entryDy=0;entryPerimeter=0;" edge="1" parent="1">
          <mxGeometry width="50" height="50" relative="1" as="geometry">
            <mxPoint x="161.25" y="324.77" as="sourcePoint" />
            <mxPoint x="113.25" y="324.77" as="targetPoint" />
          </mxGeometry>
        </mxCell>
        <mxCell id="DRkswf2aKW2MZo4WkLbO-11" value="" style="endArrow=classic;html=1;rounded=0;exitX=0.5;exitY=1;exitDx=0;exitDy=0;entryX=0.5;entryY=0;entryDx=0;entryDy=0;" edge="1" parent="1" source="DRkswf2aKW2MZo4WkLbO-3" target="DRkswf2aKW2MZo4WkLbO-4">
          <mxGeometry width="50" height="50" relative="1" as="geometry">
            <mxPoint x="163.25" y="370" as="sourcePoint" />
            <mxPoint x="213.25" y="320" as="targetPoint" />
          </mxGeometry>
        </mxCell>
        <mxCell id="DRkswf2aKW2MZo4WkLbO-12" value="" style="endArrow=classic;html=1;rounded=0;entryX=0.5;entryY=1;entryDx=0;entryDy=0;exitX=1;exitY=0.75;exitDx=0;exitDy=0;" edge="1" parent="1" source="DRkswf2aKW2MZo4WkLbO-4" target="uRppb-iTMHZAZtV6zd73-4">
          <mxGeometry width="50" height="50" relative="1" as="geometry">
            <mxPoint x="163.25" y="420" as="sourcePoint" />
            <mxPoint x="213.25" y="370" as="targetPoint" />
            <Array as="points">
              <mxPoint x="213.25" y="393" />
            </Array>
          </mxGeometry>
        </mxCell>
        <mxCell id="DRkswf2aKW2MZo4WkLbO-13" value="変更or消去" style="text;html=1;align=center;verticalAlign=middle;resizable=0;points=[];autosize=1;strokeColor=none;fillColor=none;" vertex="1" parent="1">
          <mxGeometry x="113.25" y="370" width="80" height="30" as="geometry" />
        </mxCell>
        <mxCell id="DRkswf2aKW2MZo4WkLbO-25" value="資料管理画面&lt;br&gt;&lt;br&gt;資料一覧" style="rounded=0;whiteSpace=wrap;html=1;" vertex="1" parent="1">
          <mxGeometry x="423.25" y="270" width="100" height="90" as="geometry" />
        </mxCell>
        <mxCell id="DRkswf2aKW2MZo4WkLbO-26" value="新規資料&lt;br&gt;登録画面" style="rounded=0;whiteSpace=wrap;html=1;" vertex="1" parent="1">
          <mxGeometry x="293.25" y="270" width="80" height="30" as="geometry" />
        </mxCell>
        <mxCell id="DRkswf2aKW2MZo4WkLbO-27" value="資料情報&lt;br&gt;詳細画面" style="rounded=0;whiteSpace=wrap;html=1;" vertex="1" parent="1">
          <mxGeometry x="293.25" y="310" width="80" height="30" as="geometry" />
        </mxCell>
        <mxCell id="DRkswf2aKW2MZo4WkLbO-28" value="資料情報&lt;br&gt;変更画面" style="rounded=0;whiteSpace=wrap;html=1;" vertex="1" parent="1">
          <mxGeometry x="293.25" y="370" width="80" height="30" as="geometry" />
        </mxCell>
        <mxCell id="DRkswf2aKW2MZo4WkLbO-29" value="" style="endArrow=classic;html=1;rounded=0;exitX=-0.007;exitY=0.225;exitDx=0;exitDy=0;exitPerimeter=0;entryX=1.014;entryY=0.68;entryDx=0;entryDy=0;entryPerimeter=0;" edge="1" parent="1" source="DRkswf2aKW2MZo4WkLbO-25" target="DRkswf2aKW2MZo4WkLbO-26">
          <mxGeometry width="50" height="50" relative="1" as="geometry">
            <mxPoint x="403.25" y="260" as="sourcePoint" />
            <mxPoint x="453.25" y="210" as="targetPoint" />
          </mxGeometry>
        </mxCell>
        <mxCell id="DRkswf2aKW2MZo4WkLbO-30" value="" style="endArrow=classic;html=1;rounded=0;exitX=1.017;exitY=0.171;exitDx=0;exitDy=0;exitPerimeter=0;entryX=0;entryY=0.057;entryDx=0;entryDy=0;entryPerimeter=0;" edge="1" parent="1" source="DRkswf2aKW2MZo4WkLbO-26" target="DRkswf2aKW2MZo4WkLbO-25">
          <mxGeometry width="50" height="50" relative="1" as="geometry">
            <mxPoint x="432.25" y="300" as="sourcePoint" />
            <mxPoint x="384.25" y="300" as="targetPoint" />
          </mxGeometry>
        </mxCell>
        <mxCell id="DRkswf2aKW2MZo4WkLbO-31" value="登録" style="text;html=1;align=center;verticalAlign=middle;resizable=0;points=[];autosize=1;strokeColor=none;fillColor=none;" vertex="1" parent="1">
          <mxGeometry x="373.25" y="250" width="50" height="30" as="geometry" />
        </mxCell>
        <mxCell id="DRkswf2aKW2MZo4WkLbO-32" value="" style="endArrow=classic;html=1;rounded=0;exitX=-0.007;exitY=0.225;exitDx=0;exitDy=0;exitPerimeter=0;entryX=1.014;entryY=0.68;entryDx=0;entryDy=0;entryPerimeter=0;" edge="1" parent="1">
          <mxGeometry width="50" height="50" relative="1" as="geometry">
            <mxPoint x="421.25" y="324.77" as="sourcePoint" />
            <mxPoint x="373.25" y="324.77" as="targetPoint" />
          </mxGeometry>
        </mxCell>
        <mxCell id="DRkswf2aKW2MZo4WkLbO-33" value="" style="endArrow=classic;html=1;rounded=0;exitX=0.5;exitY=1;exitDx=0;exitDy=0;entryX=0.5;entryY=0;entryDx=0;entryDy=0;" edge="1" parent="1" source="DRkswf2aKW2MZo4WkLbO-27" target="DRkswf2aKW2MZo4WkLbO-28">
          <mxGeometry width="50" height="50" relative="1" as="geometry">
            <mxPoint x="423.25" y="370" as="sourcePoint" />
            <mxPoint x="473.25" y="320" as="targetPoint" />
          </mxGeometry>
        </mxCell>
        <mxCell id="DRkswf2aKW2MZo4WkLbO-34" value="" style="endArrow=classic;html=1;rounded=0;entryX=0.5;entryY=1;entryDx=0;entryDy=0;exitX=1;exitY=0.75;exitDx=0;exitDy=0;" edge="1" parent="1" source="DRkswf2aKW2MZo4WkLbO-28" target="DRkswf2aKW2MZo4WkLbO-25">
          <mxGeometry width="50" height="50" relative="1" as="geometry">
            <mxPoint x="423.25" y="420" as="sourcePoint" />
            <mxPoint x="473.25" y="370" as="targetPoint" />
            <Array as="points">
              <mxPoint x="473.25" y="393" />
            </Array>
          </mxGeometry>
        </mxCell>
        <mxCell id="DRkswf2aKW2MZo4WkLbO-35" value="変更or消去" style="text;html=1;align=center;verticalAlign=middle;resizable=0;points=[];autosize=1;strokeColor=none;fillColor=none;" vertex="1" parent="1">
          <mxGeometry x="373.25" y="370" width="80" height="30" as="geometry" />
        </mxCell>
        <mxCell id="DRkswf2aKW2MZo4WkLbO-36" value="会員管理" style="text;html=1;align=center;verticalAlign=middle;resizable=0;points=[];autosize=1;strokeColor=none;fillColor=none;" vertex="1" parent="1">
          <mxGeometry x="28.25" y="230" width="70" height="30" as="geometry" />
        </mxCell>
        <mxCell id="DRkswf2aKW2MZo4WkLbO-37" value="資料管理" style="text;html=1;align=center;verticalAlign=middle;resizable=0;points=[];autosize=1;strokeColor=none;fillColor=none;" vertex="1" parent="1">
          <mxGeometry x="288.25" y="228" width="70" height="30" as="geometry" />
        </mxCell>
        <mxCell id="DRkswf2aKW2MZo4WkLbO-41" value="貸し出し&lt;br&gt;管理画面&lt;br&gt;&lt;br&gt;貸し出し一覧" style="rounded=0;whiteSpace=wrap;html=1;" vertex="1" parent="1">
          <mxGeometry x="693.25" y="272" width="100" height="90" as="geometry" />
        </mxCell>
        <mxCell id="DRkswf2aKW2MZo4WkLbO-42" value="貸し出し&lt;br&gt;登録画面" style="rounded=0;whiteSpace=wrap;html=1;" vertex="1" parent="1">
          <mxGeometry x="563.25" y="272" width="80" height="30" as="geometry" />
        </mxCell>
        <mxCell id="DRkswf2aKW2MZo4WkLbO-43" value="貸し出し情報&lt;br&gt;詳細画面" style="rounded=0;whiteSpace=wrap;html=1;" vertex="1" parent="1">
          <mxGeometry x="563.25" y="312" width="80" height="30" as="geometry" />
        </mxCell>
        <mxCell id="DRkswf2aKW2MZo4WkLbO-44" value="貸し出し情報&lt;br&gt;変更画面" style="rounded=0;whiteSpace=wrap;html=1;" vertex="1" parent="1">
          <mxGeometry x="563.25" y="372" width="80" height="30" as="geometry" />
        </mxCell>
        <mxCell id="DRkswf2aKW2MZo4WkLbO-45" value="" style="endArrow=classic;html=1;rounded=0;exitX=-0.007;exitY=0.225;exitDx=0;exitDy=0;exitPerimeter=0;entryX=1.014;entryY=0.68;entryDx=0;entryDy=0;entryPerimeter=0;" edge="1" parent="1" source="DRkswf2aKW2MZo4WkLbO-41" target="DRkswf2aKW2MZo4WkLbO-42">
          <mxGeometry width="50" height="50" relative="1" as="geometry">
            <mxPoint x="673.25" y="262" as="sourcePoint" />
            <mxPoint x="723.25" y="212" as="targetPoint" />
          </mxGeometry>
        </mxCell>
        <mxCell id="DRkswf2aKW2MZo4WkLbO-46" value="" style="endArrow=classic;html=1;rounded=0;exitX=1.017;exitY=0.171;exitDx=0;exitDy=0;exitPerimeter=0;entryX=0;entryY=0.057;entryDx=0;entryDy=0;entryPerimeter=0;" edge="1" parent="1" source="DRkswf2aKW2MZo4WkLbO-42" target="DRkswf2aKW2MZo4WkLbO-41">
          <mxGeometry width="50" height="50" relative="1" as="geometry">
            <mxPoint x="702.25" y="302" as="sourcePoint" />
            <mxPoint x="654.25" y="302" as="targetPoint" />
          </mxGeometry>
        </mxCell>
        <mxCell id="DRkswf2aKW2MZo4WkLbO-47" value="登録" style="text;html=1;align=center;verticalAlign=middle;resizable=0;points=[];autosize=1;strokeColor=none;fillColor=none;" vertex="1" parent="1">
          <mxGeometry x="643.25" y="252" width="50" height="30" as="geometry" />
        </mxCell>
        <mxCell id="DRkswf2aKW2MZo4WkLbO-48" value="" style="endArrow=classic;html=1;rounded=0;exitX=-0.007;exitY=0.225;exitDx=0;exitDy=0;exitPerimeter=0;entryX=1.014;entryY=0.68;entryDx=0;entryDy=0;entryPerimeter=0;" edge="1" parent="1">
          <mxGeometry width="50" height="50" relative="1" as="geometry">
            <mxPoint x="691.25" y="326.77" as="sourcePoint" />
            <mxPoint x="643.25" y="326.77" as="targetPoint" />
          </mxGeometry>
        </mxCell>
        <mxCell id="DRkswf2aKW2MZo4WkLbO-49" value="" style="endArrow=classic;html=1;rounded=0;exitX=0.5;exitY=1;exitDx=0;exitDy=0;entryX=0.5;entryY=0;entryDx=0;entryDy=0;" edge="1" parent="1" source="DRkswf2aKW2MZo4WkLbO-43" target="DRkswf2aKW2MZo4WkLbO-44">
          <mxGeometry width="50" height="50" relative="1" as="geometry">
            <mxPoint x="693.25" y="372" as="sourcePoint" />
            <mxPoint x="743.25" y="322" as="targetPoint" />
          </mxGeometry>
        </mxCell>
        <mxCell id="DRkswf2aKW2MZo4WkLbO-50" value="" style="endArrow=classic;html=1;rounded=0;entryX=0.5;entryY=1;entryDx=0;entryDy=0;exitX=1;exitY=0.75;exitDx=0;exitDy=0;" edge="1" parent="1" source="DRkswf2aKW2MZo4WkLbO-44" target="DRkswf2aKW2MZo4WkLbO-41">
          <mxGeometry width="50" height="50" relative="1" as="geometry">
            <mxPoint x="693.25" y="422" as="sourcePoint" />
            <mxPoint x="743.25" y="372" as="targetPoint" />
            <Array as="points">
              <mxPoint x="743.25" y="395" />
            </Array>
          </mxGeometry>
        </mxCell>
        <mxCell id="DRkswf2aKW2MZo4WkLbO-51" value="&lt;font color=&quot;#ff6666&quot;&gt;変更or消去or返却&lt;/font&gt;" style="text;html=1;align=center;verticalAlign=middle;resizable=0;points=[];autosize=1;strokeColor=none;fillColor=none;" vertex="1" parent="1">
          <mxGeometry x="633.25" y="372" width="120" height="30" as="geometry" />
        </mxCell>
        <mxCell id="DRkswf2aKW2MZo4WkLbO-52" value="貸し出し管理" style="text;html=1;align=center;verticalAlign=middle;resizable=0;points=[];autosize=1;strokeColor=none;fillColor=none;" vertex="1" parent="1">
          <mxGeometry x="553.25" y="232" width="100" height="30" as="geometry" />
        </mxCell>
        <mxCell id="DRkswf2aKW2MZo4WkLbO-53" value="ログイン画面" style="rounded=0;whiteSpace=wrap;html=1;" vertex="1" parent="1">
          <mxGeometry x="363.25" y="12" width="100" height="40" as="geometry" />
        </mxCell>
        <mxCell id="DRkswf2aKW2MZo4WkLbO-54" value="アカウント&lt;br&gt;登録画面" style="rounded=0;whiteSpace=wrap;html=1;" vertex="1" parent="1">
          <mxGeometry x="476.75" y="12" width="100" height="40" as="geometry" />
        </mxCell>
        <mxCell id="DRkswf2aKW2MZo4WkLbO-56" value="" style="endArrow=classic;html=1;rounded=0;exitX=0.798;exitY=1.055;exitDx=0;exitDy=0;entryX=0.25;entryY=0;entryDx=0;entryDy=0;exitPerimeter=0;" edge="1" parent="1" source="DRkswf2aKW2MZo4WkLbO-53" target="uRppb-iTMHZAZtV6zd73-1">
          <mxGeometry width="50" height="50" relative="1" as="geometry">
            <mxPoint x="521.75" y="142" as="sourcePoint" />
            <mxPoint x="571.75" y="92" as="targetPoint" />
          </mxGeometry>
        </mxCell>
        <mxCell id="DRkswf2aKW2MZo4WkLbO-57" value="" style="endArrow=classic;html=1;rounded=0;exitX=0.22;exitY=1.023;exitDx=0;exitDy=0;entryX=0.719;entryY=0.021;entryDx=0;entryDy=0;exitPerimeter=0;entryPerimeter=0;" edge="1" parent="1" source="DRkswf2aKW2MZo4WkLbO-54" target="uRppb-iTMHZAZtV6zd73-1">
          <mxGeometry width="50" height="50" relative="1" as="geometry">
            <mxPoint x="501.75" y="52" as="sourcePoint" />
            <mxPoint x="501.75" y="102" as="targetPoint" />
          </mxGeometry>
        </mxCell>
        <mxCell id="DRkswf2aKW2MZo4WkLbO-58" value="" style="endArrow=classic;html=1;rounded=0;exitX=1;exitY=0.25;exitDx=0;exitDy=0;entryX=0;entryY=0.25;entryDx=0;entryDy=0;" edge="1" parent="1" source="DRkswf2aKW2MZo4WkLbO-53" target="DRkswf2aKW2MZo4WkLbO-54">
          <mxGeometry width="50" height="50" relative="1" as="geometry">
            <mxPoint x="361.75" y="172" as="sourcePoint" />
            <mxPoint x="411.75" y="122" as="targetPoint" />
          </mxGeometry>
        </mxCell>
        <mxCell id="DRkswf2aKW2MZo4WkLbO-59" value="" style="endArrow=classic;html=1;rounded=0;entryX=1;entryY=0.75;entryDx=0;entryDy=0;exitX=0;exitY=0.75;exitDx=0;exitDy=0;" edge="1" parent="1" source="DRkswf2aKW2MZo4WkLbO-54" target="DRkswf2aKW2MZo4WkLbO-53">
          <mxGeometry width="50" height="50" relative="1" as="geometry">
            <mxPoint x="471.75" y="42" as="sourcePoint" />
            <mxPoint x="486.75" y="32" as="targetPoint" />
          </mxGeometry>
        </mxCell>
      </root>
    </mxGraphModel>
  </diagram>
</mxfile>
